<?xml version="1.0" encoding="utf-8"?>
<!-- Generator: Adobe Illustrator 16.0.0, SVG Export Plug-In . SVG Version: 6.00 Build 0)  -->
<!DOCTYPE svg PUBLIC "-//W3C//DTD SVG 1.1//EN" "http://www.w3.org/Graphics/SVG/1.1/DTD/svg11.dtd">
<svg version="1.1" id="Layer_1" xmlns="http://www.w3.org/2000/svg" xmlns:xlink="http://www.w3.org/1999/xlink" x="0px" y="0px"
	 width="300px" height="100px" viewBox="0 0 300 100" enable-background="new 0 0 300 100" xml:space="preserve">
<g>
	<path fill="#1F421D" d="M27.69,30.472h13.784v55.875H81v12.086H27.69V30.472z"/>
	<path fill="#1F421D" d="M92.608,30.472h13.873v67.961H92.608V30.472z"/>
	<path fill="#1F421D" d="M127.221,78.215c2.461,1.392,4.961,2.646,7.499,3.762c2.536,1.116,5.168,2.058,7.891,2.824
		c2.724,0.771,5.588,1.357,8.588,1.764c3.001,0.404,6.195,0.606,9.59,0.606c4.086,0,7.563-0.266,10.433-0.804
		c2.87-0.536,5.211-1.275,7.024-2.218c1.81-0.941,3.132-2.064,3.954-3.369c0.828-1.306,1.241-2.725,1.241-4.261
		c0-2.465-1.029-4.414-3.089-5.85c-2.055-1.434-5.231-2.151-9.52-2.151c-1.884,0-3.872,0.123-5.958,0.37
		c-2.089,0.247-4.196,0.516-6.326,0.803c-2.133,0.292-4.233,0.56-6.305,0.806c-2.074,0.245-4.023,0.368-5.85,0.368
		c-3.044,0-5.965-0.391-8.759-1.174c-2.798-0.781-5.276-1.956-7.436-3.521c-2.163-1.564-3.879-3.521-5.155-5.869
		c-1.278-2.349-1.912-5.088-1.912-8.218c0-1.856,0.255-3.696,0.762-5.523c0.505-1.825,1.316-3.571,2.433-5.239
		c1.114-1.667,2.558-3.218,4.327-4.652c1.769-1.435,3.908-2.675,6.415-3.718c2.508-1.043,5.403-1.863,8.697-2.458
		c3.289-0.593,7.032-0.891,11.237-0.891c3.043,0,6.102,0.167,9.176,0.501c3.071,0.333,6.064,0.804,8.977,1.412
		c2.913,0.609,5.72,1.342,8.416,2.197c2.692,0.855,5.201,1.805,7.521,2.848l-6.044,11.131c-1.912-0.841-3.972-1.617-6.176-2.327
		c-2.202-0.71-4.507-1.326-6.912-1.848c-2.408-0.522-4.891-0.935-7.458-1.239c-2.565-0.305-5.185-0.457-7.847-0.457
		c-3.801,0-6.921,0.276-9.37,0.826c-2.45,0.551-4.402,1.254-5.852,2.109c-1.45,0.854-2.455,1.811-3.02,2.869
		c-0.564,1.059-0.849,2.109-0.849,3.153c0,2.03,0.914,3.689,2.739,4.979c1.825,1.291,4.609,1.937,8.347,1.937
		c1.508,0,3.24-0.111,5.197-0.328c1.959-0.217,4.016-0.456,6.175-0.718c2.158-0.261,4.361-0.5,6.609-0.718
		c2.245-0.217,4.425-0.324,6.543-0.324c4.002,0,7.547,0.449,10.631,1.348c3.088,0.896,5.674,2.181,7.764,3.847
		c2.086,1.668,3.666,3.683,4.741,6.043c1.069,2.364,1.605,5.009,1.605,7.937c0,3.914-0.906,7.4-2.718,10.457
		c-1.811,3.06-4.393,5.639-7.74,7.741c-3.345,2.101-7.383,3.694-12.108,4.782c-4.725,1.087-9.986,1.631-15.782,1.631
		c-3.826,0-7.564-0.24-11.221-0.718c-3.651-0.479-7.151-1.159-10.498-2.043c-3.351-0.885-6.538-1.942-9.566-3.175
		c-3.032-1.231-5.837-2.588-8.414-4.065L127.221,78.215z"/>
	<path fill="#1F421D" d="M233.576,42.561h-25.089V30.472h63.961v12.089h-25.091v55.872h-13.781V42.561z"/>
</g>
<g>
	<path fill="#58595B" d="M270.768,27.576c0-1.118-0.906-2.025-2.023-2.025c-1.12,0-2.026,0.907-2.026,2.025
		c0,1.12,0.906,2.026,2.026,2.026C269.861,29.602,270.768,28.696,270.768,27.576L270.768,27.576z M267.525,27.576
		c0-0.684,0.553-1.238,1.237-1.238c0.686,0,1.239,0.555,1.239,1.238c0,0.686-0.554,1.239-1.239,1.239
		C268.078,28.815,267.525,28.262,267.525,27.576L267.525,27.576z"/>
	<path fill="#58595B" d="M271.949,15.424h-14.002l-0.118-0.63c-0.217-1.109-1.189-1.909-2.322-1.908h-1.021l0.381,0.787h0.64
		c0.746,0.004,1.386,0.529,1.535,1.259l1.889,9.499c0.037,0.186,0.203,0.318,0.394,0.314h10.914
		c0.189,0.004,0.354-0.129,0.393-0.314l1.712-8.555c0.044-0.213-0.095-0.42-0.308-0.464c-0.028-0.006-0.058-0.009-0.086-0.009
		V15.424z M271.181,17.626h-2.3l0.177-1.435h2.419L271.181,17.626z M258.555,18.413h2.419l0.158,1.317h-2.319L258.555,18.413z
		 M261.78,18.413h2.716v1.317h-2.558L261.78,18.413z M265.283,17.626V16.21h2.987l-0.176,1.436L265.283,17.626z M267.996,18.413
		l-0.157,1.317h-2.556v-1.317H267.996z M264.496,17.626h-2.812l-0.178-1.435h2.99V17.626z M264.496,20.517v1.318h-2.301
		l-0.158-1.297L264.496,20.517z M264.496,22.621v1.337h-2.046l-0.158-1.337H264.496z M265.283,22.621h2.181l-0.156,1.337h-2.024
		V22.621z M265.283,21.834v-1.297h2.457l-0.158,1.317L265.283,21.834z M268.526,20.537h2.084l-0.255,1.317h-1.987L268.526,20.537z
		 M268.626,19.75l0.156-1.318h2.242l-0.257,1.318H268.626z M260.719,16.21l0.178,1.436h-2.498l-0.295-1.436H260.719z
		 M258.989,20.537h2.242l0.157,1.317h-2.164L258.989,20.537z M259.403,22.64h2.103l0.158,1.338h-2.006L259.403,22.64z
		 M268.113,23.978l0.157-1.338h1.928l-0.275,1.338H268.113z"/>
	<path fill="#58595B" d="M262.902,27.576c0-1.118-0.906-2.025-2.025-2.025s-2.025,0.907-2.025,2.025c0,1.12,0.906,2.026,2.025,2.026
		S262.902,28.696,262.902,27.576L262.902,27.576z M259.658,27.576c0-0.684,0.555-1.238,1.238-1.238c0.685,0,1.24,0.555,1.24,1.238
		c0,0.686-0.556,1.239-1.24,1.239c-0.684,0.011-1.247-0.535-1.259-1.218c0-0.007,0-0.014,0-0.021H259.658z"/>
</g>
<text transform="matrix(1 0 0 1 27.6904 27.5767)" fill="#58595B" font-family="'KronaOne-Regular'" font-size="31.2918">SHOPPING</text>
</svg>
